<svg class="rich-terminal" viewBox="0 0 1360 782.0" xmlns="http://www.w3.org/2000/svg">
    <!-- Generated with Rich https://www.textualize.io -->
    <style>

    @font-face {
        font-family: "Fira Code";
        src: local("FiraCode-Regular"),
                url("https://cdnjs.cloudflare.com/ajax/libs/firacode/6.2.0/woff2/FiraCode-Regular.woff2") format("woff2"),
                url("https://cdnjs.cloudflare.com/ajax/libs/firacode/6.2.0/woff/FiraCode-Regular.woff") format("woff");
        font-style: normal;
        font-weight: 400;
    }
    @font-face {
        font-family: "Fira Code";
        src: local("FiraCode-Bold"),
                url("https://cdnjs.cloudflare.com/ajax/libs/firacode/6.2.0/woff2/FiraCode-Bold.woff2") format("woff2"),
                url("https://cdnjs.cloudflare.com/ajax/libs/firacode/6.2.0/woff/FiraCode-Bold.woff") format("woff");
        font-style: bold;
        font-weight: 700;
    }

    .terminal-2256718780-matrix {
        font-family: Fira Code, monospace;
        font-size: 20px;
        line-height: 24.4px;
        font-variant-east-asian: full-width;
    }

    .terminal-2256718780-title {
        font-size: 18px;
        font-weight: bold;
        font-family: arial;
    }

    .terminal-2256718780-r1 { fill: #c5c8c6 }
.terminal-2256718780-r2 { fill: #0178d4 }
.terminal-2256718780-r3 { fill: #e1e2e4;font-weight: bold }
.terminal-2256718780-r4 { fill: #5d687d }
.terminal-2256718780-r5 { fill: #e6ebf4;font-weight: bold }
.terminal-2256718780-r6 { fill: #cdd3dc }
.terminal-2256718780-r7 { fill: #8ad4a1 }
.terminal-2256718780-r8 { fill: #e1e2e4 }
.terminal-2256718780-r9 { fill: #9da5b4 }
.terminal-2256718780-r10 { fill: #dce2ec }
.terminal-2256718780-r11 { fill: #7b869b }
.terminal-2256718780-r12 { fill: #ddedf9;font-weight: bold }
.terminal-2256718780-r13 { fill: #e0e0e0;font-weight: bold }
    </style>

    <defs>
    <clipPath id="terminal-2256718780-clip-terminal">
      <rect x="0" y="0" width="1341.0" height="731.0" />
    </clipPath>
    <clipPath id="terminal-2256718780-line-0">
    <rect x="0" y="1.5" width="1342" height="24.65"/>
            </clipPath>
<clipPath id="terminal-2256718780-line-1">
    <rect x="0" y="25.9" width="1342" height="24.65"/>
            </clipPath>
<clipPath id="terminal-2256718780-line-2">
    <rect x="0" y="50.3" width="1342" height="24.65"/>
            </clipPath>
<clipPath id="terminal-2256718780-line-3">
    <rect x="0" y="74.7" width="1342" height="24.65"/>
            </clipPath>
<clipPath id="terminal-2256718780-line-4">
    <rect x="0" y="99.1" width="1342" height="24.65"/>
            </clipPath>
<clipPath id="terminal-2256718780-line-5">
    <rect x="0" y="123.5" width="1342" height="24.65"/>
            </clipPath>
<clipPath id="terminal-2256718780-line-6">
    <rect x="0" y="147.9" width="1342" height="24.65"/>
            </clipPath>
<clipPath id="terminal-2256718780-line-7">
    <rect x="0" y="172.3" width="1342" height="24.65"/>
            </clipPath>
<clipPath id="terminal-2256718780-line-8">
    <rect x="0" y="196.7" width="1342" height="24.65"/>
            </clipPath>
<clipPath id="terminal-2256718780-line-9">
    <rect x="0" y="221.1" width="1342" height="24.65"/>
            </clipPath>
<clipPath id="terminal-2256718780-line-10">
    <rect x="0" y="245.5" width="1342" height="24.65"/>
            </clipPath>
<clipPath id="terminal-2256718780-line-11">
    <rect x="0" y="269.9" width="1342" height="24.65"/>
            </clipPath>
<clipPath id="terminal-2256718780-line-12">
    <rect x="0" y="294.3" width="1342" height="24.65"/>
            </clipPath>
<clipPath id="terminal-2256718780-line-13">
    <rect x="0" y="318.7" width="1342" height="24.65"/>
            </clipPath>
<clipPath id="terminal-2256718780-line-14">
    <rect x="0" y="343.1" width="1342" height="24.65"/>
            </clipPath>
<clipPath id="terminal-2256718780-line-15">
    <rect x="0" y="367.5" width="1342" height="24.65"/>
            </clipPath>
<clipPath id="terminal-2256718780-line-16">
    <rect x="0" y="391.9" width="1342" height="24.65"/>
            </clipPath>
<clipPath id="terminal-2256718780-line-17">
    <rect x="0" y="416.3" width="1342" height="24.65"/>
            </clipPath>
<clipPath id="terminal-2256718780-line-18">
    <rect x="0" y="440.7" width="1342" height="24.65"/>
            </clipPath>
<clipPath id="terminal-2256718780-line-19">
    <rect x="0" y="465.1" width="1342" height="24.65"/>
            </clipPath>
<clipPath id="terminal-2256718780-line-20">
    <rect x="0" y="489.5" width="1342" height="24.65"/>
            </clipPath>
<clipPath id="terminal-2256718780-line-21">
    <rect x="0" y="513.9" width="1342" height="24.65"/>
            </clipPath>
<clipPath id="terminal-2256718780-line-22">
    <rect x="0" y="538.3" width="1342" height="24.65"/>
            </clipPath>
<clipPath id="terminal-2256718780-line-23">
    <rect x="0" y="562.7" width="1342" height="24.65"/>
            </clipPath>
<clipPath id="terminal-2256718780-line-24">
    <rect x="0" y="587.1" width="1342" height="24.65"/>
            </clipPath>
<clipPath id="terminal-2256718780-line-25">
    <rect x="0" y="611.5" width="1342" height="24.65"/>
            </clipPath>
<clipPath id="terminal-2256718780-line-26">
    <rect x="0" y="635.9" width="1342" height="24.65"/>
            </clipPath>
<clipPath id="terminal-2256718780-line-27">
    <rect x="0" y="660.3" width="1342" height="24.65"/>
            </clipPath>
<clipPath id="terminal-2256718780-line-28">
    <rect x="0" y="684.7" width="1342" height="24.65"/>
            </clipPath>
    </defs>

    <rect fill="#292929" stroke="rgba(255,255,255,0.35)" stroke-width="1" x="1" y="1" width="1358" height="780" rx="8"/><text class="terminal-2256718780-title" fill="#c5c8c6" text-anchor="middle" x="679" y="27">PyCom&#160;-&#160;options</text>
            <g transform="translate(26,22)">
            <circle cx="0" cy="0" r="7" fill="#ff5f57"/>
            <circle cx="22" cy="0" r="7" fill="#febc2e"/>
            <circle cx="44" cy="0" r="7" fill="#28c840"/>
            </g>
        
    <g transform="translate(9, 41)" clip-path="url(#terminal-2256718780-clip-terminal)">
    <rect fill="#0f111a" x="0" y="1.5" width="1342" height="24.65" shape-rendering="crispEdges"/><rect fill="#0f111a" x="0" y="25.9" width="1342" height="24.65" shape-rendering="crispEdges"/><rect fill="#0f111a" x="0" y="50.3" width="48.8" height="24.65" shape-rendering="crispEdges"/><rect fill="#1c2233" x="48.8" y="50.3" width="976" height="24.65" shape-rendering="crispEdges"/><rect fill="#0f111a" x="1024.8" y="50.3" width="317.2" height="24.65" shape-rendering="crispEdges"/><rect fill="#0f111a" x="0" y="74.7" width="48.8" height="24.65" shape-rendering="crispEdges"/><rect fill="#1c2233" x="48.8" y="74.7" width="12.2" height="24.65" shape-rendering="crispEdges"/><rect fill="#1c2233" x="61" y="74.7" width="951.6" height="24.65" shape-rendering="crispEdges"/><rect fill="#1c2233" x="1012.6" y="74.7" width="12.2" height="24.65" shape-rendering="crispEdges"/><rect fill="#0f111a" x="1024.8" y="74.7" width="317.2" height="24.65" shape-rendering="crispEdges"/><rect fill="#0f111a" x="0" y="99.1" width="48.8" height="24.65" shape-rendering="crispEdges"/><rect fill="#1c2233" x="48.8" y="99.1" width="12.2" height="24.65" shape-rendering="crispEdges"/><rect fill="#1c2233" x="61" y="99.1" width="24.4" height="24.65" shape-rendering="crispEdges"/><rect fill="#1c2233" x="85.4" y="99.1" width="97.6" height="24.65" shape-rendering="crispEdges"/><rect fill="#1c2233" x="183" y="99.1" width="829.6" height="24.65" shape-rendering="crispEdges"/><rect fill="#1c2233" x="1012.6" y="99.1" width="12.2" height="24.65" shape-rendering="crispEdges"/><rect fill="#0f111a" x="1024.8" y="99.1" width="317.2" height="24.65" shape-rendering="crispEdges"/><rect fill="#0f111a" x="0" y="123.5" width="48.8" height="24.65" shape-rendering="crispEdges"/><rect fill="#1c2233" x="48.8" y="123.5" width="12.2" height="24.65" shape-rendering="crispEdges"/><rect fill="#1c2233" x="61" y="123.5" width="951.6" height="24.65" shape-rendering="crispEdges"/><rect fill="#1c2233" x="1012.6" y="123.5" width="12.2" height="24.65" shape-rendering="crispEdges"/><rect fill="#0f111a" x="1024.8" y="123.5" width="317.2" height="24.65" shape-rendering="crispEdges"/><rect fill="#0f111a" x="0" y="147.9" width="48.8" height="24.65" shape-rendering="crispEdges"/><rect fill="#1c2233" x="48.8" y="147.9" width="12.2" height="24.65" shape-rendering="crispEdges"/><rect fill="#1c2233" x="61" y="147.9" width="24.4" height="24.65" shape-rendering="crispEdges"/><rect fill="#1c2233" x="85.4" y="147.9" width="12.2" height="24.65" shape-rendering="crispEdges"/><rect fill="#2a3450" x="97.6" y="147.9" width="122" height="24.65" shape-rendering="crispEdges"/><rect fill="#1c2233" x="219.6" y="147.9" width="793" height="24.65" shape-rendering="crispEdges"/><rect fill="#1c2233" x="1012.6" y="147.9" width="12.2" height="24.65" shape-rendering="crispEdges"/><rect fill="#0f111a" x="1024.8" y="147.9" width="317.2" height="24.65" shape-rendering="crispEdges"/><rect fill="#0f111a" x="0" y="172.3" width="48.8" height="24.65" shape-rendering="crispEdges"/><rect fill="#1c2233" x="48.8" y="172.3" width="12.2" height="24.65" shape-rendering="crispEdges"/><rect fill="#1c2233" x="61" y="172.3" width="24.4" height="24.65" shape-rendering="crispEdges"/><rect fill="#1c2233" x="85.4" y="172.3" width="12.2" height="24.65" shape-rendering="crispEdges"/><rect fill="#1c2233" x="97.6" y="172.3" width="122" height="24.65" shape-rendering="crispEdges"/><rect fill="#1c2233" x="219.6" y="172.3" width="793" height="24.65" shape-rendering="crispEdges"/><rect fill="#1c2233" x="1012.6" y="172.3" width="12.2" height="24.65" shape-rendering="crispEdges"/><rect fill="#0f111a" x="1024.8" y="172.3" width="317.2" height="24.65" shape-rendering="crispEdges"/><rect fill="#0f111a" x="0" y="196.7" width="48.8" height="24.65" shape-rendering="crispEdges"/><rect fill="#1c2233" x="48.8" y="196.7" width="12.2" height="24.65" shape-rendering="crispEdges"/><rect fill="#1c2233" x="61" y="196.7" width="24.4" height="24.65" shape-rendering="crispEdges"/><rect fill="#1c2233" x="85.4" y="196.7" width="12.2" height="24.65" shape-rendering="crispEdges"/><rect fill="#1c2233" x="97.6" y="196.7" width="219.6" height="24.65" shape-rendering="crispEdges"/><rect fill="#1c2233" x="317.2" y="196.7" width="695.4" height="24.65" shape-rendering="crispEdges"/><rect fill="#1c2233" x="1012.6" y="196.7" width="12.2" height="24.65" shape-rendering="crispEdges"/><rect fill="#0f111a" x="1024.8" y="196.7" width="317.2" height="24.65" shape-rendering="crispEdges"/><rect fill="#0f111a" x="0" y="221.1" width="48.8" height="24.65" shape-rendering="crispEdges"/><rect fill="#1c2233" x="48.8" y="221.1" width="12.2" height="24.65" shape-rendering="crispEdges"/><rect fill="#1c2233" x="61" y="221.1" width="24.4" height="24.65" shape-rendering="crispEdges"/><rect fill="#1c2233" x="85.4" y="221.1" width="12.2" height="24.65" shape-rendering="crispEdges"/><rect fill="#1c2233" x="97.6" y="221.1" width="219.6" height="24.65" shape-rendering="crispEdges"/><rect fill="#1c2233" x="317.2" y="221.1" width="695.4" height="24.65" shape-rendering="crispEdges"/><rect fill="#1c2233" x="1012.6" y="221.1" width="12.2" height="24.65" shape-rendering="crispEdges"/><rect fill="#0f111a" x="1024.8" y="221.1" width="317.2" height="24.65" shape-rendering="crispEdges"/><rect fill="#0f111a" x="0" y="245.5" width="48.8" height="24.65" shape-rendering="crispEdges"/><rect fill="#1c2233" x="48.8" y="245.5" width="12.2" height="24.65" shape-rendering="crispEdges"/><rect fill="#1c2233" x="61" y="245.5" width="24.4" height="24.65" shape-rendering="crispEdges"/><rect fill="#1c2233" x="85.4" y="245.5" width="12.2" height="24.65" shape-rendering="crispEdges"/><rect fill="#1c2233" x="97.6" y="245.5" width="195.2" height="24.65" shape-rendering="crispEdges"/><rect fill="#1c2233" x="292.8" y="245.5" width="719.8" height="24.65" shape-rendering="crispEdges"/><rect fill="#1c2233" x="1012.6" y="245.5" width="12.2" height="24.65" shape-rendering="crispEdges"/><rect fill="#0f111a" x="1024.8" y="245.5" width="317.2" height="24.65" shape-rendering="crispEdges"/><rect fill="#0f111a" x="0" y="269.9" width="48.8" height="24.65" shape-rendering="crispEdges"/><rect fill="#1c2233" x="48.8" y="269.9" width="12.2" height="24.65" shape-rendering="crispEdges"/><rect fill="#1c2233" x="61" y="269.9" width="24.4" height="24.65" shape-rendering="crispEdges"/><rect fill="#1c2233" x="85.4" y="269.9" width="12.2" height="24.65" shape-rendering="crispEdges"/><rect fill="#1c2233" x="97.6" y="269.9" width="329.4" height="24.65" shape-rendering="crispEdges"/><rect fill="#1c2233" x="427" y="269.9" width="585.6" height="24.65" shape-rendering="crispEdges"/><rect fill="#1c2233" x="1012.6" y="269.9" width="12.2" height="24.65" shape-rendering="crispEdges"/><rect fill="#0f111a" x="1024.8" y="269.9" width="317.2" height="24.65" shape-rendering="crispEdges"/><rect fill="#0f111a" x="0" y="294.3" width="48.8" height="24.65" shape-rendering="crispEdges"/><rect fill="#1c2233" x="48.8" y="294.3" width="12.2" height="24.65" shape-rendering="crispEdges"/><rect fill="#1c2233" x="61" y="294.3" width="24.4" height="24.65" shape-rendering="crispEdges"/><rect fill="#1c2233" x="85.4" y="294.3" width="12.2" height="24.65" shape-rendering="crispEdges"/><rect fill="#1c2233" x="97.6" y="294.3" width="305" height="24.65" shape-rendering="crispEdges"/><rect fill="#1c2233" x="402.6" y="294.3" width="610" height="24.65" shape-rendering="crispEdges"/><rect fill="#1c2233" x="1012.6" y="294.3" width="12.2" height="24.65" shape-rendering="crispEdges"/><rect fill="#0f111a" x="1024.8" y="294.3" width="317.2" height="24.65" shape-rendering="crispEdges"/><rect fill="#0f111a" x="0" y="318.7" width="48.8" height="24.65" shape-rendering="crispEdges"/><rect fill="#1c2233" x="48.8" y="318.7" width="12.2" height="24.65" shape-rendering="crispEdges"/><rect fill="#1c2233" x="61" y="318.7" width="951.6" height="24.65" shape-rendering="crispEdges"/><rect fill="#1c2233" x="1012.6" y="318.7" width="12.2" height="24.65" shape-rendering="crispEdges"/><rect fill="#0f111a" x="1024.8" y="318.7" width="317.2" height="24.65" shape-rendering="crispEdges"/><rect fill="#0f111a" x="0" y="343.1" width="48.8" height="24.65" shape-rendering="crispEdges"/><rect fill="#1c2233" x="48.8" y="343.1" width="12.2" height="24.65" shape-rendering="crispEdges"/><rect fill="#1c2233" x="61" y="343.1" width="24.4" height="24.65" shape-rendering="crispEdges"/><rect fill="#1c2233" x="85.4" y="343.1" width="97.6" height="24.65" shape-rendering="crispEdges"/><rect fill="#1c2233" x="183" y="343.1" width="97.6" height="24.65" shape-rendering="crispEdges"/><rect fill="#232b40" x="280.6" y="343.1" width="12.2" height="24.65" shape-rendering="crispEdges"/><rect fill="#232b40" x="292.8" y="343.1" width="109.8" height="24.65" shape-rendering="crispEdges"/><rect fill="#232b40" x="402.6" y="343.1" width="85.4" height="24.65" shape-rendering="crispEdges"/><rect fill="#232b40" x="488" y="343.1" width="12.2" height="24.65" shape-rendering="crispEdges"/><rect fill="#1c2233" x="500.2" y="343.1" width="97.6" height="24.65" shape-rendering="crispEdges"/><rect fill="#1c2233" x="597.8" y="343.1" width="97.6" height="24.65" shape-rendering="crispEdges"/><rect fill="#232b40" x="695.4" y="343.1" width="12.2" height="24.65" shape-rendering="crispEdges"/><rect fill="#232b40" x="707.6" y="343.1" width="122" height="24.65" shape-rendering="crispEdges"/><rect fill="#232b40" x="829.6" y="343.1" width="73.2" height="24.65" shape-rendering="crispEdges"/><rect fill="#232b40" x="902.8" y="343.1" width="12.2" height="24.65" shape-rendering="crispEdges"/><rect fill="#1c2233" x="915" y="343.1" width="97.6" height="24.65" shape-rendering="crispEdges"/><rect fill="#1c2233" x="1012.6" y="343.1" width="12.2" height="24.65" shape-rendering="crispEdges"/><rect fill="#0f111a" x="1024.8" y="343.1" width="317.2" height="24.65" shape-rendering="crispEdges"/><rect fill="#0f111a" x="0" y="367.5" width="48.8" height="24.65" shape-rendering="crispEdges"/><rect fill="#1c2233" x="48.8" y="367.5" width="12.2" height="24.65" shape-rendering="crispEdges"/><rect fill="#1c2233" x="61" y="367.5" width="24.4" height="24.65" shape-rendering="crispEdges"/><rect fill="#1c2233" x="85.4" y="367.5" width="122" height="24.65" shape-rendering="crispEdges"/><rect fill="#1c2233" x="207.4" y="367.5" width="73.2" height="24.65" shape-rendering="crispEdges"/><rect fill="#232b40" x="280.6" y="367.5" width="12.2" height="24.65" shape-rendering="crispEdges"/><rect fill="#232b40" x="292.8" y="367.5" width="61" height="24.65" shape-rendering="crispEdges"/><rect fill="#232b40" x="353.8" y="367.5" width="134.2" height="24.65" shape-rendering="crispEdges"/><rect fill="#232b40" x="488" y="367.5" width="12.2" height="24.65" shape-rendering="crispEdges"/><rect fill="#1c2233" x="500.2" y="367.5" width="134.2" height="24.65" shape-rendering="crispEdges"/><rect fill="#1c2233" x="634.4" y="367.5" width="61" height="24.65" shape-rendering="crispEdges"/><rect fill="#232b40" x="695.4" y="367.5" width="12.2" height="24.65" shape-rendering="crispEdges"/><rect fill="#232b40" x="707.6" y="367.5" width="195.2" height="24.65" shape-rendering="crispEdges"/><rect fill="#232b40" x="902.8" y="367.5" width="12.2" height="24.65" shape-rendering="crispEdges"/><rect fill="#1c2233" x="915" y="367.5" width="97.6" height="24.65" shape-rendering="crispEdges"/><rect fill="#1c2233" x="1012.6" y="367.5" width="12.2" height="24.65" shape-rendering="crispEdges"/><rect fill="#0f111a" x="1024.8" y="367.5" width="317.2" height="24.65" shape-rendering="crispEdges"/><rect fill="#0f111a" x="0" y="391.9" width="48.8" height="24.65" shape-rendering="crispEdges"/><rect fill="#1c2233" x="48.8" y="391.9" width="12.2" height="24.65" shape-rendering="crispEdges"/><rect fill="#1c2233" x="61" y="391.9" width="24.4" height="24.65" shape-rendering="crispEdges"/><rect fill="#1c2233" x="85.4" y="391.9" width="97.6" height="24.65" shape-rendering="crispEdges"/><rect fill="#1c2233" x="183" y="391.9" width="97.6" height="24.65" shape-rendering="crispEdges"/><rect fill="#232b40" x="280.6" y="391.9" width="12.2" height="24.65" shape-rendering="crispEdges"/><rect fill="#232b40" x="292.8" y="391.9" width="195.2" height="24.65" shape-rendering="crispEdges"/><rect fill="#232b40" x="488" y="391.9" width="12.2" height="24.65" shape-rendering="crispEdges"/><rect fill="#1c2233" x="500.2" y="391.9" width="73.2" height="24.65" shape-rendering="crispEdges"/><rect fill="#1c2233" x="573.4" y="391.9" width="122" height="24.65" shape-rendering="crispEdges"/><rect fill="#232b40" x="695.4" y="391.9" width="12.2" height="24.65" shape-rendering="crispEdges"/><rect fill="#232b40" x="707.6" y="391.9" width="195.2" height="24.65" shape-rendering="crispEdges"/><rect fill="#232b40" x="902.8" y="391.9" width="12.2" height="24.65" shape-rendering="crispEdges"/><rect fill="#1c2233" x="915" y="391.9" width="97.6" height="24.65" shape-rendering="crispEdges"/><rect fill="#1c2233" x="1012.6" y="391.9" width="12.2" height="24.65" shape-rendering="crispEdges"/><rect fill="#0f111a" x="1024.8" y="391.9" width="317.2" height="24.65" shape-rendering="crispEdges"/><rect fill="#0f111a" x="0" y="416.3" width="48.8" height="24.65" shape-rendering="crispEdges"/><rect fill="#1c2233" x="48.8" y="416.3" width="12.2" height="24.65" shape-rendering="crispEdges"/><rect fill="#1c2233" x="61" y="416.3" width="951.6" height="24.65" shape-rendering="crispEdges"/><rect fill="#1c2233" x="1012.6" y="416.3" width="12.2" height="24.65" shape-rendering="crispEdges"/><rect fill="#0f111a" x="1024.8" y="416.3" width="317.2" height="24.65" shape-rendering="crispEdges"/><rect fill="#0f111a" x="0" y="440.7" width="48.8" height="24.65" shape-rendering="crispEdges"/><rect fill="#1c2233" x="48.8" y="440.7" width="12.2" height="24.65" shape-rendering="crispEdges"/><rect fill="#1c2233" x="61" y="440.7" width="24.4" height="24.65" shape-rendering="crispEdges"/><rect fill="#0178d4" x="85.4" y="440.7" width="61" height="24.65" shape-rendering="crispEdges"/><rect fill="#0178d4" x="146.4" y="440.7" width="73.2" height="24.65" shape-rendering="crispEdges"/><rect fill="#0178d4" x="219.6" y="440.7" width="61" height="24.65" shape-rendering="crispEdges"/><rect fill="#1e1e1e" x="280.6" y="440.7" width="61" height="24.65" shape-rendering="crispEdges"/><rect fill="#1e1e1e" x="341.6" y="440.7" width="73.2" height="24.65" shape-rendering="crispEdges"/><rect fill="#1e1e1e" x="414.8" y="440.7" width="61" height="24.65" shape-rendering="crispEdges"/><rect fill="#1c2233" x="475.8" y="440.7" width="536.8" height="24.65" shape-rendering="crispEdges"/><rect fill="#1c2233" x="1012.6" y="440.7" width="12.2" height="24.65" shape-rendering="crispEdges"/><rect fill="#0f111a" x="1024.8" y="440.7" width="317.2" height="24.65" shape-rendering="crispEdges"/><rect fill="#0f111a" x="0" y="465.1" width="48.8" height="24.65" shape-rendering="crispEdges"/><rect fill="#1c2233" x="48.8" y="465.1" width="12.2" height="24.65" shape-rendering="crispEdges"/><rect fill="#1c2233" x="61" y="465.1" width="951.6" height="24.65" shape-rendering="crispEdges"/><rect fill="#1c2233" x="1012.6" y="465.1" width="12.2" height="24.65" shape-rendering="crispEdges"/><rect fill="#0f111a" x="1024.8" y="465.1" width="317.2" height="24.65" shape-rendering="crispEdges"/><rect fill="#0f111a" x="0" y="489.5" width="48.8" height="24.65" shape-rendering="crispEdges"/><rect fill="#1c2233" x="48.8" y="489.5" width="976" height="24.65" shape-rendering="crispEdges"/><rect fill="#0f111a" x="1024.8" y="489.5" width="317.2" height="24.65" shape-rendering="crispEdges"/><rect fill="#0f111a" x="0" y="513.9" width="1342" height="24.65" shape-rendering="crispEdges"/><rect fill="#0f111a" x="0" y="538.3" width="1342" height="24.65" shape-rendering="crispEdges"/><rect fill="#0f111a" x="0" y="562.7" width="1342" height="24.65" shape-rendering="crispEdges"/><rect fill="#0f111a" x="0" y="587.1" width="1342" height="24.65" shape-rendering="crispEdges"/><rect fill="#0f111a" x="0" y="611.5" width="1342" height="24.65" shape-rendering="crispEdges"/><rect fill="#0f111a" x="0" y="635.9" width="1342" height="24.65" shape-rendering="crispEdges"/><rect fill="#0f111a" x="0" y="660.3" width="1342" height="24.65" shape-rendering="crispEdges"/><rect fill="#0f111a" x="0" y="684.7" width="1342" height="24.65" shape-rendering="crispEdges"/><rect fill="#0f111a" x="0" y="709.1" width="1342" height="24.65" shape-rendering="crispEdges"/>
    <g class="terminal-2256718780-matrix">
    <text class="terminal-2256718780-r1" x="1342" y="20" textLength="12.2" clip-path="url(#terminal-2256718780-line-0)">
</text><text class="terminal-2256718780-r1" x="1342" y="44.4" textLength="12.2" clip-path="url(#terminal-2256718780-line-1)">
</text><text class="terminal-2256718780-r2" x="48.8" y="68.8" textLength="976" clip-path="url(#terminal-2256718780-line-2)">+------------------------------------------------------------------------------+</text><text class="terminal-2256718780-r1" x="1342" y="68.8" textLength="12.2" clip-path="url(#terminal-2256718780-line-2)">
</text><text class="terminal-2256718780-r2" x="48.8" y="93.2" textLength="12.2" clip-path="url(#terminal-2256718780-line-3)">|</text><text class="terminal-2256718780-r2" x="1012.6" y="93.2" textLength="12.2" clip-path="url(#terminal-2256718780-line-3)">|</text><text class="terminal-2256718780-r1" x="1342" y="93.2" textLength="12.2" clip-path="url(#terminal-2256718780-line-3)">
</text><text class="terminal-2256718780-r2" x="48.8" y="117.6" textLength="12.2" clip-path="url(#terminal-2256718780-line-4)">|</text><text class="terminal-2256718780-r3" x="85.4" y="117.6" textLength="48.8" clip-path="url(#terminal-2256718780-line-4)">选项设置</text><text class="terminal-2256718780-r2" x="1012.6" y="117.6" textLength="12.2" clip-path="url(#terminal-2256718780-line-4)">|</text><text class="terminal-2256718780-r1" x="1342" y="117.6" textLength="12.2" clip-path="url(#terminal-2256718780-line-4)">
</text><text class="terminal-2256718780-r2" x="48.8" y="142" textLength="12.2" clip-path="url(#terminal-2256718780-line-5)">|</text><text class="terminal-2256718780-r2" x="1012.6" y="142" textLength="12.2" clip-path="url(#terminal-2256718780-line-5)">|</text><text class="terminal-2256718780-r1" x="1342" y="142" textLength="12.2" clip-path="url(#terminal-2256718780-line-5)">
</text><text class="terminal-2256718780-r2" x="48.8" y="166.4" textLength="12.2" clip-path="url(#terminal-2256718780-line-6)">|</text><text class="terminal-2256718780-r4" x="85.4" y="166.4" textLength="12.2" clip-path="url(#terminal-2256718780-line-6)">○</text><text class="terminal-2256718780-r5" x="97.6" y="166.4" textLength="73.2" clip-path="url(#terminal-2256718780-line-6)">&#160;本地回显&#160;</text><text class="terminal-2256718780-r2" x="1012.6" y="166.4" textLength="12.2" clip-path="url(#terminal-2256718780-line-6)">|</text><text class="terminal-2256718780-r1" x="1342" y="166.4" textLength="12.2" clip-path="url(#terminal-2256718780-line-6)">
</text><text class="terminal-2256718780-r2" x="48.8" y="190.8" textLength="12.2" clip-path="url(#terminal-2256718780-line-7)">|</text><text class="terminal-2256718780-r4" x="85.4" y="190.8" textLength="12.2" clip-path="url(#terminal-2256718780-line-7)">○</text><text class="terminal-2256718780-r6" x="97.6" y="190.8" textLength="73.2" clip-path="url(#terminal-2256718780-line-7)">&#160;自动回绕&#160;</text><text class="terminal-2256718780-r2" x="1012.6" y="190.8" textLength="12.2" clip-path="url(#terminal-2256718780-line-7)">|</text><text class="terminal-2256718780-r1" x="1342" y="190.8" textLength="12.2" clip-path="url(#terminal-2256718780-line-7)">
</text><text class="terminal-2256718780-r2" x="48.8" y="215.2" textLength="12.2" clip-path="url(#terminal-2256718780-line-8)">|</text><text class="terminal-2256718780-r4" x="85.4" y="215.2" textLength="12.2" clip-path="url(#terminal-2256718780-line-8)">○</text><text class="terminal-2256718780-r6" x="97.6" y="215.2" textLength="195.2" clip-path="url(#terminal-2256718780-line-8)">&#160;接收&#160;LF&#160;-&gt;&#160;CR+LF&#160;</text><text class="terminal-2256718780-r2" x="1012.6" y="215.2" textLength="12.2" clip-path="url(#terminal-2256718780-line-8)">|</text><text class="terminal-2256718780-r1" x="1342" y="215.2" textLength="12.2" clip-path="url(#terminal-2256718780-line-8)">
</text><text class="terminal-2256718780-r2" x="48.8" y="239.6" textLength="12.2" clip-path="url(#terminal-2256718780-line-9)">|</text><text class="terminal-2256718780-r4" x="85.4" y="239.6" textLength="12.2" clip-path="url(#terminal-2256718780-line-9)">○</text><text class="terminal-2256718780-r6" x="97.6" y="239.6" textLength="195.2" clip-path="url(#terminal-2256718780-line-9)">&#160;接收&#160;CR&#160;-&gt;&#160;CR+LF&#160;</text><text class="terminal-2256718780-r2" x="1012.6" y="239.6" textLength="12.2" clip-path="url(#terminal-2256718780-line-9)">|</text><text class="terminal-2256718780-r1" x="1342" y="239.6" textLength="12.2" clip-path="url(#terminal-2256718780-line-9)">
</text><text class="terminal-2256718780-r2" x="48.8" y="264" textLength="12.2" clip-path="url(#terminal-2256718780-line-10)">|</text><text class="terminal-2256718780-r4" x="85.4" y="264" textLength="12.2" clip-path="url(#terminal-2256718780-line-10)">○</text><text class="terminal-2256718780-r6" x="97.6" y="264" textLength="109.8" clip-path="url(#terminal-2256718780-line-10)">&#160;捕获时加时间戳&#160;</text><text class="terminal-2256718780-r2" x="1012.6" y="264" textLength="12.2" clip-path="url(#terminal-2256718780-line-10)">|</text><text class="terminal-2256718780-r1" x="1342" y="264" textLength="12.2" clip-path="url(#terminal-2256718780-line-10)">
</text><text class="terminal-2256718780-r2" x="48.8" y="288.4" textLength="12.2" clip-path="url(#terminal-2256718780-line-11)">|</text><text class="terminal-2256718780-r7" x="85.4" y="288.4" textLength="12.2" clip-path="url(#terminal-2256718780-line-11)">●</text><text class="terminal-2256718780-r8" x="97.6" y="288.4" textLength="207.4" clip-path="url(#terminal-2256718780-line-11)">&#160;发送方向键/功能键&#160;VT&#160;序列&#160;</text><text class="terminal-2256718780-r2" x="1012.6" y="288.4" textLength="12.2" clip-path="url(#terminal-2256718780-line-11)">|</text><text class="terminal-2256718780-r1" x="1342" y="288.4" textLength="12.2" clip-path="url(#terminal-2256718780-line-11)">
</text><text class="terminal-2256718780-r2" x="48.8" y="312.8" textLength="12.2" clip-path="url(#terminal-2256718780-line-12)">|</text><text class="terminal-2256718780-r4" x="85.4" y="312.8" textLength="12.2" clip-path="url(#terminal-2256718780-line-12)">○</text><text class="terminal-2256718780-r6" x="97.6" y="312.8" textLength="207.4" clip-path="url(#terminal-2256718780-line-12)">&#160;16&#160;进制接收/发送（HEX）&#160;</text><text class="terminal-2256718780-r2" x="1012.6" y="312.8" textLength="12.2" clip-path="url(#terminal-2256718780-line-12)">|</text><text class="terminal-2256718780-r1" x="1342" y="312.8" textLength="12.2" clip-path="url(#terminal-2256718780-line-12)">
</text><text class="terminal-2256718780-r2" x="48.8" y="337.2" textLength="12.2" clip-path="url(#terminal-2256718780-line-13)">|</text><text class="terminal-2256718780-r2" x="1012.6" y="337.2" textLength="12.2" clip-path="url(#terminal-2256718780-line-13)">|</text><text class="terminal-2256718780-r1" x="1342" y="337.2" textLength="12.2" clip-path="url(#terminal-2256718780-line-13)">
</text><text class="terminal-2256718780-r2" x="48.8" y="361.6" textLength="12.2" clip-path="url(#terminal-2256718780-line-14)">|</text><text class="terminal-2256718780-r9" x="85.4" y="361.6" textLength="48.8" clip-path="url(#terminal-2256718780-line-14)">回车发送</text><text class="terminal-2256718780-r10" x="292.8" y="361.6" textLength="85.4" clip-path="url(#terminal-2256718780-line-14)">CR&#160;(回车)</text><text class="terminal-2256718780-r11" x="488" y="361.6" textLength="12.2" clip-path="url(#terminal-2256718780-line-14)">▼</text><text class="terminal-2256718780-r9" x="500.2" y="361.6" textLength="48.8" clip-path="url(#terminal-2256718780-line-14)">退格发送</text><text class="terminal-2256718780-r10" x="707.6" y="361.6" textLength="122" clip-path="url(#terminal-2256718780-line-14)">DEL&#160;(0x7F)</text><text class="terminal-2256718780-r11" x="902.8" y="361.6" textLength="12.2" clip-path="url(#terminal-2256718780-line-14)">▼</text><text class="terminal-2256718780-r2" x="1012.6" y="361.6" textLength="12.2" clip-path="url(#terminal-2256718780-line-14)">|</text><text class="terminal-2256718780-r1" x="1342" y="361.6" textLength="12.2" clip-path="url(#terminal-2256718780-line-14)">
</text><text class="terminal-2256718780-r2" x="48.8" y="386" textLength="12.2" clip-path="url(#terminal-2256718780-line-15)">|</text><text class="terminal-2256718780-r9" x="85.4" y="386" textLength="61" clip-path="url(#terminal-2256718780-line-15)">解码字符集</text><text class="terminal-2256718780-r10" x="292.8" y="386" textLength="61" clip-path="url(#terminal-2256718780-line-15)">UTF-8</text><text class="terminal-2256718780-r11" x="488" y="386" textLength="12.2" clip-path="url(#terminal-2256718780-line-15)">▼</text><text class="terminal-2256718780-r9" x="500.2" y="386" textLength="85.4" clip-path="url(#terminal-2256718780-line-15)">传输超时(s)</text><text class="terminal-2256718780-r10" x="707.6" y="386" textLength="195.2" clip-path="url(#terminal-2256718780-line-15)">10.0&#160;&#160;&#160;&#160;&#160;&#160;&#160;&#160;&#160;&#160;&#160;&#160;</text><text class="terminal-2256718780-r2" x="1012.6" y="386" textLength="12.2" clip-path="url(#terminal-2256718780-line-15)">|</text><text class="terminal-2256718780-r1" x="1342" y="386" textLength="12.2" clip-path="url(#terminal-2256718780-line-15)">
</text><text class="terminal-2256718780-r2" x="48.8" y="410.4" textLength="12.2" clip-path="url(#terminal-2256718780-line-16)">|</text><text class="terminal-2256718780-r9" x="85.4" y="410.4" textLength="48.8" clip-path="url(#terminal-2256718780-line-16)">重试次数</text><text class="terminal-2256718780-r10" x="292.8" y="410.4" textLength="195.2" clip-path="url(#terminal-2256718780-line-16)">10&#160;&#160;&#160;&#160;&#160;&#160;&#160;&#160;&#160;&#160;&#160;&#160;&#160;&#160;</text><text class="terminal-2256718780-r9" x="500.2" y="410.4" textLength="36.6" clip-path="url(#terminal-2256718780-line-16)">数据块</text><text class="terminal-2256718780-r10" x="707.6" y="410.4" textLength="195.2" clip-path="url(#terminal-2256718780-line-16)">1024&#160;&#160;&#160;&#160;&#160;&#160;&#160;&#160;&#160;&#160;&#160;&#160;</text><text class="terminal-2256718780-r2" x="1012.6" y="410.4" textLength="12.2" clip-path="url(#terminal-2256718780-line-16)">|</text><text class="terminal-2256718780-r1" x="1342" y="410.4" textLength="12.2" clip-path="url(#terminal-2256718780-line-16)">
</text><text class="terminal-2256718780-r2" x="48.8" y="434.8" textLength="12.2" clip-path="url(#terminal-2256718780-line-17)">|</text><text class="terminal-2256718780-r2" x="1012.6" y="434.8" textLength="12.2" clip-path="url(#terminal-2256718780-line-17)">|</text><text class="terminal-2256718780-r1" x="1342" y="434.8" textLength="12.2" clip-path="url(#terminal-2256718780-line-17)">
</text><text class="terminal-2256718780-r2" x="48.8" y="459.2" textLength="12.2" clip-path="url(#terminal-2256718780-line-18)">|</text><text class="terminal-2256718780-r12" x="146.4" y="459.2" textLength="48.8" clip-path="url(#terminal-2256718780-line-18)">&#160;保存&#160;</text><text class="terminal-2256718780-r13" x="341.6" y="459.2" textLength="48.8" clip-path="url(#terminal-2256718780-line-18)">&#160;取消&#160;</text><text class="terminal-2256718780-r2" x="1012.6" y="459.2" textLength="12.2" clip-path="url(#terminal-2256718780-line-18)">|</text><text class="terminal-2256718780-r1" x="1342" y="459.2" textLength="12.2" clip-path="url(#terminal-2256718780-line-18)">
</text><text class="terminal-2256718780-r2" x="48.8" y="483.6" textLength="12.2" clip-path="url(#terminal-2256718780-line-19)">|</text><text class="terminal-2256718780-r2" x="1012.6" y="483.6" textLength="12.2" clip-path="url(#terminal-2256718780-line-19)">|</text><text class="terminal-2256718780-r1" x="1342" y="483.6" textLength="12.2" clip-path="url(#terminal-2256718780-line-19)">
</text><text class="terminal-2256718780-r2" x="48.8" y="508" textLength="976" clip-path="url(#terminal-2256718780-line-20)">+------------------------------------------------------------------------------+</text><text class="terminal-2256718780-r1" x="1342" y="508" textLength="12.2" clip-path="url(#terminal-2256718780-line-20)">
</text><text class="terminal-2256718780-r1" x="1342" y="532.4" textLength="12.2" clip-path="url(#terminal-2256718780-line-21)">
</text><text class="terminal-2256718780-r1" x="1342" y="556.8" textLength="12.2" clip-path="url(#terminal-2256718780-line-22)">
</text><text class="terminal-2256718780-r1" x="1342" y="581.2" textLength="12.2" clip-path="url(#terminal-2256718780-line-23)">
</text><text class="terminal-2256718780-r1" x="1342" y="605.6" textLength="12.2" clip-path="url(#terminal-2256718780-line-24)">
</text><text class="terminal-2256718780-r1" x="1342" y="630" textLength="12.2" clip-path="url(#terminal-2256718780-line-25)">
</text><text class="terminal-2256718780-r1" x="1342" y="654.4" textLength="12.2" clip-path="url(#terminal-2256718780-line-26)">
</text><text class="terminal-2256718780-r1" x="1342" y="678.8" textLength="12.2" clip-path="url(#terminal-2256718780-line-27)">
</text><text class="terminal-2256718780-r1" x="1342" y="703.2" textLength="12.2" clip-path="url(#terminal-2256718780-line-28)">
</text>
    </g>
    </g>
</svg>
